                            : 1.36 GiB
Duration                                 : 1h 34mn
Overall bit rate                         : 2 050 Kbps

Video
ID                                       : 0
Format                                   : MPEG-4 Visual
Format profile                           : Advanced Simple@L5
Format settings, BVOP                    : 2
Format settings, QPel                    : No
Format settings, GMC                     : No warppoints
Format settings, Matrix                  : Default (H.263)
Muxing mode                              : Packed bitstream
Codec ID                                 : XVID
Codec ID/Hint                            : XviD
Duration                                 : 1h 34mn
Bit rate                                 : 1 851 Kbps
Width                                    : 720 pixels
Height                                   : 384 pixels
Display aspect ratio                     : 1.85:1
Frame rate                               : 23.976 fps
Color space                              : YUV
Chroma subsampling                       : 4:2:0
Bit depth                                : 8 bits
Scan type                                : Progressive
Compression mode                         : Lossy
Bits/(Pixel*Frame)                       : 0.279
Stream size                              : 1.23 GiB (90%)
Writing library                          : XviD 64

Audio
ID                                       : 1
Format                                   : AC-3
Format/Info                              : Audio Coding 3
Mode extension                           : CM (complete main)
Format settings, Endianness              : Big
Codec ID                                 : 2000
Duration                                 : 1h 34mn
Bit rate mode                            : Constant
Bit rate                                 : 192 Kbps
Channel(s)                               : 2 channels
Channel positions                        : Front: L R
Sampling rate                            : 44.1 KHz
Bit depth                                : 16 bits
Compression mode                         : Lossy
Stream size                              : 130 MiB (9%)
Alignment                                : Aligned on interleaves
Interleave, duration                     : 70 ms (1.67 video frames)
Interleave, preload duration             : 208 ms
Title                                    : smiley




SOURCE: 
720p Super Secret Source


NOTES: 
October has begun, pretty much our favorite month of the year here at AXED, and to kick it off we bring you a very special treat! A nice encode from an HD source of the new horror film 'Smiley' that hit's theatres on Oct 12!

P.S.
Just to note since apparently a PG-13 & an R Rated cut for this movie were both produced, this is the uncut R Rated version!

AXED! - The only name to trust for VOD/HDRiP!